<?xml version="1.0" standalone="no"?>
<!DOCTYPE svg PUBLIC "-//W3C//DTD SVG 20010904//EN"
 "http://www.w3.org/TR/2001/REC-SVG-20010904/DTD/svg10.dtd">
<svg version="1.0" xmlns="http://www.w3.org/2000/svg"
 width="714.000000pt" height="224.000000pt" viewBox="0 0 714.000000 224.000000"
 preserveAspectRatio="xMidYMid meet">

<g transform="translate(0.000000,224.000000) scale(0.100000,-0.100000)"
fill="#000000" stroke="none">
<path d="M1160 2161 c-182 -56 -234 -277 -93 -400 187 -165 465 47 359 275
-45 97 -168 154 -266 125z"/>
<path d="M1514 2125 c-4 -9 1 -32 10 -51 9 -19 16 -36 16 -38 0 -1 -19 -2 -42
-2 -51 1 -64 -24 -23 -42 21 -10 30 -9 50 4 24 16 25 15 25 -4 0 -12 -4 -24
-10 -27 -15 -9 -12 -45 4 -45 24 0 38 27 31 60 -4 18 -3 30 4 30 5 0 13 -16
17 -36 6 -31 10 -35 33 -32 20 2 26 8 26 28 0 19 -8 29 -32 39 -42 18 -42 29
-1 33 26 2 35 9 43 31 8 24 6 31 -9 43 -25 18 -49 4 -67 -38 l-14 -33 -5 45
c-4 37 -9 46 -28 48 -13 2 -25 -3 -28 -13z"/>
<path d="M1476 1898 c13 -71 47 -97 149 -117 119 -22 136 -31 210 -101 87 -82
125 -103 187 -104 68 0 118 52 118 123 0 67 -53 116 -99 91 -24 -12 -28 -40
-7 -40 25 0 29 -21 8 -42 -30 -31 -48 -17 -86 66 -26 57 -42 79 -67 91 -43 23
-123 22 -237 -1 -103 -20 -114 -18 -147 34 -26 40 -36 40 -29 0z"/>
<path d="M192 1825 c-62 -19 -106 -57 -136 -117 -62 -124 -12 -263 116 -318
40 -17 64 -21 104 -17 130 13 214 105 214 234 0 105 -63 188 -164 218 -59 18
-78 18 -134 0z"/>
<path d="M2550 1675 c-259 -58 -464 -259 -478 -468 -4 -60 -1 -80 16 -113 35
-69 93 -104 172 -104 123 0 216 104 227 255 3 40 1 80 -4 89 -7 13 -12 -4 -17
-69 -3 -47 -12 -101 -20 -118 -48 -116 -173 -164 -250 -97 -69 61 -84 148 -45
262 76 227 375 398 612 349 32 -7 70 -23 86 -37 l29 -24 -55 -53 c-77 -71
-147 -168 -288 -396 -171 -277 -245 -350 -353 -351 -36 0 -73 11 -91 26 -2 2
6 12 18 21 44 36 -2 102 -57 82 -20 -8 -23 -14 -20 -56 3 -45 6 -49 43 -68 64
-32 164 -27 240 13 128 66 216 163 337 367 124 211 171 282 219 337 46 51 48
52 63 33 74 -98 -34 -291 -174 -310 -73 -10 -68 -26 13 -40 24 -4 53 -19 75
-40 36 -33 37 -35 37 -107 -1 -85 -22 -135 -85 -198 -71 -71 -179 -79 -209
-15 -12 26 -12 35 2 75 9 25 12 49 7 54 -16 16 -65 -10 -85 -46 -19 -35 -19
-38 -2 -73 51 -106 248 -95 364 21 62 62 86 116 87 194 1 72 -12 97 -71 141
-18 13 -32 26 -32 29 0 3 23 16 51 30 59 29 112 96 121 155 7 42 -20 134 -48
161 -21 22 -7 38 53 60 100 37 59 49 -45 13 l-62 -20 -71 25 c-58 21 -88 26
-163 25 -51 -1 -117 -7 -147 -14z"/>
<path d="M4722 1640 c-107 -78 -131 -194 -47 -234 47 -22 105 -20 193 8 20 7
11 -11 -51 -101 -41 -59 -112 -166 -157 -238 -105 -167 -149 -218 -212 -249
-57 -29 -84 -32 -122 -15 -23 11 -24 13 -10 35 34 51 -29 102 -68 54 -26 -32
-22 -54 12 -84 39 -33 88 -41 156 -27 121 24 227 126 420 406 171 249 244 343
289 375 71 50 85 62 85 72 0 26 -88 -19 -216 -109 -91 -64 -148 -86 -222 -87
-58 -1 -66 1 -89 28 -20 24 -24 37 -19 64 7 45 32 72 67 72 44 0 81 18 77 38
-5 28 -41 25 -86 -8z"/>
<path d="M5528 1660 c-53 -16 -136 -82 -276 -219 -157 -153 -200 -181 -295
-190 -33 -3 -62 -11 -64 -17 -2 -6 16 -17 41 -24 92 -25 102 -78 43 -226 -44
-110 -46 -145 -11 -181 23 -23 30 -25 76 -19 59 8 135 44 198 94 78 62 74 60
66 29 -3 -15 -2 -45 4 -67 22 -82 129 -75 231 17 l39 35 0 -40 c0 -31 5 -45
22 -56 45 -32 108 -13 203 62 63 49 63 50 9 -33 -9 -14 -15 -27 -13 -29 2 -2
22 -1 43 3 35 5 43 13 78 71 55 91 143 204 192 247 49 42 160 97 181 89 8 -3
15 -13 15 -22 0 -9 -52 -99 -115 -200 -63 -100 -115 -184 -115 -186 0 -2 19
-2 43 0 41 4 45 7 77 60 89 152 216 286 316 335 40 19 46 20 60 5 14 -14 14
-19 -1 -49 -10 -19 -46 -73 -81 -120 -100 -134 -116 -190 -67 -229 22 -17 36
-20 66 -16 53 9 111 40 163 88 l44 41 -6 -44 c-8 -62 11 -84 69 -83 55 1 128
47 224 142 79 78 148 160 141 168 -3 3 -30 -21 -59 -53 -92 -100 -147 -151
-210 -198 -61 -45 -82 -52 -107 -36 -20 12 3 60 119 243 56 87 99 161 96 164
-3 3 -21 2 -41 -1 -32 -7 -43 -18 -102 -109 -111 -169 -262 -306 -338 -306
-25 0 -30 8 -27 40 2 8 43 76 92 150 100 152 109 183 62 220 -20 16 -36 20
-58 16 -49 -10 -107 -43 -161 -91 l-52 -45 10 41 c29 114 -70 131 -201 34 -34
-25 -61 -42 -61 -39 0 3 14 25 30 50 33 47 30 50 -29 38 -27 -6 -43 -23 -105
-118 -130 -200 -346 -365 -346 -266 0 24 20 60 138 249 46 73 81 135 79 137
-2 3 -22 2 -45 -2 -28 -4 -44 -13 -53 -30 l-12 -24 -27 32 c-25 29 -32 32 -81
32 -96 -1 -196 -73 -287 -206 -60 -87 -243 -213 -300 -206 -36 4 -40 47 -12
114 49 112 48 210 -1 263 -34 38 -35 41 -11 41 27 1 129 45 175 77 22 15 110
94 193 175 89 85 164 150 180 154 37 9 58 -6 65 -50 8 -47 15 -53 39 -31 20
18 26 60 12 81 -21 32 -101 43 -164 24z m152 -472 c17 -19 20 -30 14 -63 -20
-120 -163 -290 -253 -302 -33 -5 -41 -2 -51 17 -39 73 95 301 205 351 52 24
60 24 85 -3z"/>
<path d="M3840 1338 c-160 -251 -220 -338 -275 -393 -87 -88 -157 -137 -198
-139 -29 -1 -32 2 -30 27 2 27 19 58 157 281 l68 109 -44 -7 c-29 -5 -50 -15
-63 -32 l-21 -26 -14 26 c-32 62 -145 53 -243 -19 -51 -38 -129 -136 -158
-200 -23 -49 -24 -123 -4 -152 34 -49 119 -37 201 28 l49 39 6 -35 c16 -93
121 -82 242 25 26 23 50 40 52 38 3 -3 0 -19 -6 -37 -9 -25 -8 -36 5 -56 45
-68 160 -24 278 107 l27 30 -16 -51 c-20 -62 -10 -101 29 -115 39 -14 107 16
193 86 72 57 213 214 202 224 -2 3 -29 -21 -58 -53 -167 -182 -275 -262 -318
-234 -18 12 9 71 83 186 162 247 156 232 87 219 -27 -6 -42 -22 -89 -93 -93
-142 -285 -321 -344 -321 -30 0 -33 28 -8 73 13 22 120 194 238 381 118 188
224 356 234 374 l20 32 -39 0 -39 0 -204 -322z m-472 -144 c85 -59 -116 -374
-240 -374 -74 0 -64 105 23 234 65 98 120 143 189 155 3 1 16 -6 28 -15z"/>
<path d="M1372 1635 c-141 -32 -320 -142 -385 -237 -39 -56 -69 -127 -60 -141
3 -4 46 34 96 86 97 98 144 128 239 148 139 30 273 -48 353 -207 26 -52 30
-69 30 -144 0 -75 -4 -93 -31 -151 -18 -37 -76 -131 -129 -210 -162 -241 -215
-372 -215 -534 0 -85 28 -171 52 -163 7 3 19 33 28 69 24 98 50 141 206 349
387 516 455 810 238 1027 -78 78 -161 115 -272 119 -53 2 -112 -2 -150 -11z"/>
<path d="M4178 1429 c-24 -13 -23 -56 1 -69 29 -15 39 -13 57 15 16 24 16 27
-1 45 -20 22 -32 24 -57 9z"/>
<path d="M7028 1429 c-21 -12 -24 -49 -6 -67 19 -19 46 -14 64 13 16 24 16 27
-1 45 -20 22 -32 24 -57 9z"/>
<path d="M435 1324 c-281 -55 -435 -228 -423 -473 3 -74 9 -95 37 -148 91
-170 312 -307 676 -418 327 -100 395 -128 465 -191 41 -38 70 -40 70 -6 0 37
-60 138 -117 195 -103 104 -205 159 -450 245 -295 104 -367 169 -393 348 -26
188 52 323 217 374 83 25 143 25 255 -1 49 -12 92 -18 95 -15 18 18 -68 70
-152 92 -63 17 -189 16 -280 -2z"/>
<path d="M2080 560 c0 -17 7 -20 40 -20 25 0 40 -5 40 -12 0 -17 -19 -186 -25
-220 -4 -25 -2 -28 25 -28 32 0 27 -18 47 180 l8 75 43 3 c34 3 42 7 42 23 0
18 -8 19 -110 19 -103 0 -110 -1 -110 -20z"/>
<path d="M4836 554 c-3 -9 -20 -14 -46 -14 l-40 0 0 -100 0 -100 30 0 c25 0
30 -4 30 -25 0 -20 -5 -25 -25 -25 -18 0 -25 5 -25 20 0 11 -7 20 -15 20 -10
0 -15 -10 -15 -30 l0 -30 99 0 c56 0 103 -4 106 -10 9 -14 51 -12 63 2 5 7 12
33 13 58 l4 45 -118 3 c-156 4 -145 22 14 22 73 0 119 4 119 10 0 6 -48 10
-125 10 -152 0 -170 18 -23 22 l102 3 1 50 0 50 -58 3 c-31 2 -57 7 -57 11 0
16 -28 20 -34 5z m114 -44 c0 -6 -35 -10 -86 -10 -54 0 -83 4 -79 10 3 6 42
10 86 10 46 0 79 -4 79 -10z m0 -47 c0 -10 -20 -13 -79 -13 -44 0 -82 4 -85 9
-9 14 13 19 92 18 53 0 72 -4 72 -14z m30 -153 c0 -25 -4 -30 -25 -30 -20 0
-25 5 -25 25 0 30 -25 34 -33 4 -8 -29 -51 -22 -55 9 -3 21 0 22 67 22 l71 0
0 -30z"/>
<path d="M5289 563 c-1 -5 -1 -11 0 -15 0 -5 -28 -8 -64 -8 l-65 0 0 -30 c0
-20 5 -30 15 -30 8 0 15 7 15 15 0 12 19 15 115 15 96 0 115 -3 115 -15 0 -8
7 -15 15 -15 10 0 15 10 15 30 l0 30 -64 0 c-48 0 -65 4 -70 15 -6 15 -25 21
-27 8z"/>
<path d="M5663 550 c-4 -15 -14 -20 -39 -20 -43 0 -45 -20 -1 -21 17 -1 45 -2
61 -3 16 0 31 -7 33 -13 3 -10 -11 -13 -51 -13 -43 0 -56 -3 -56 -15 0 -12 13
-15 55 -15 42 0 55 -3 55 -15 0 -12 -14 -15 -70 -15 -56 0 -70 -3 -70 -15 0
-13 24 -15 155 -15 131 0 155 2 155 15 0 12 -14 15 -70 15 -56 0 -70 3 -70 15
0 12 13 15 55 15 42 0 55 3 55 15 0 12 -13 15 -56 15 -40 0 -55 3 -52 13 3 7
28 13 66 15 65 3 88 22 27 22 -28 0 -35 4 -35 20 0 11 -6 20 -14 20 -8 0 -18
-9 -21 -20 -5 -15 -15 -20 -40 -20 -25 0 -35 5 -40 20 -3 11 -11 20 -17 20 -5
0 -12 -9 -15 -20z"/>
<path d="M6056 561 c-4 -5 -3 -16 0 -25 5 -12 0 -16 -20 -16 -16 0 -26 -6 -26
-15 0 -8 7 -15 16 -15 15 0 16 -10 10 -77 -3 -42 -11 -92 -18 -110 -9 -25 -9
-36 0 -45 9 -9 15 -3 27 25 8 20 15 49 15 64 0 43 11 73 26 73 11 0 14 -16 14
-66 0 -58 -2 -67 -20 -71 -24 -6 -21 -26 4 -31 36 -7 46 16 46 109 l0 89 -30
0 c-23 0 -30 4 -30 20 0 26 47 28 66 3 13 -17 15 -17 33 5 16 18 29 22 80 22
48 0 61 3 61 15 0 11 -12 15 -50 15 -36 0 -50 4 -50 14 0 31 -28 23 -45 -12
-10 -21 -20 -31 -22 -24 -3 6 -15 12 -29 12 -17 0 -25 7 -30 25 -6 26 -18 32
-28 16z"/>
<path d="M6573 563 c-7 -2 -9 -11 -6 -19 4 -10 -2 -17 -16 -21 -21 -5 -30 -23
-11 -23 15 0 12 -96 -5 -137 -12 -29 -13 -38 -3 -44 16 -10 34 22 43 74 10 53
25 46 25 -13 0 -38 -4 -50 -15 -50 -8 0 -15 -4 -15 -9 0 -17 19 -22 40 -11 17
9 20 21 20 80 0 68 -1 70 -25 70 -16 0 -25 6 -25 15 0 23 31 31 45 12 7 -10
17 -17 24 -17 6 0 11 -4 11 -10 0 -5 9 -10 21 -10 15 0 19 -4 15 -16 -3 -9 -6
-18 -6 -20 0 -2 -9 -4 -19 -4 -28 0 -35 -28 -8 -32 29 -4 35 -38 9 -45 -25 -6
-18 -33 9 -33 20 0 39 28 39 59 0 12 7 21 15 21 8 0 15 7 15 15 0 8 -7 15 -15
15 -17 0 -20 16 -5 25 6 3 10 15 10 26 0 16 -7 19 -41 19 -24 0 -38 4 -34 10
3 6 24 10 46 10 28 0 39 4 39 15 0 10 -11 15 -35 15 -25 0 -33 4 -29 14 3 7
-2 16 -10 19 -10 4 -18 -4 -25 -24 -11 -33 -34 -31 -54 6 -7 12 -17 20 -24 18z"/>
<path d="M4310 455 c0 -55 -5 -120 -11 -144 -12 -52 2 -76 22 -40 8 14 15 70
17 136 l4 112 126 3 c86 2 127 7 129 15 3 9 -34 13 -141 15 l-146 3 0 -100z"/>
<path d="M6454 549 c-3 -6 5 -23 19 -37 23 -23 27 -24 33 -8 4 10 -1 25 -11
36 -21 23 -31 25 -41 9z"/>
<path d="M3882 408 l3 -143 130 -3 c143 -3 155 2 155 60 0 37 -28 38 -32 1
l-3 -28 -110 0 -110 0 0 50 0 50 115 5 115 5 0 70 0 70 -133 3 -133 3 3 -143z
m118 67 l0 -45 -45 0 -45 0 0 45 0 45 45 0 45 0 0 -45z m110 0 l0 -45 -40 0
-40 0 0 45 0 45 40 0 40 0 0 -45z"/>
<path d="M2482 490 c-86 -53 -74 -195 18 -215 40 -9 96 18 120 57 22 37 27
114 7 139 -32 42 -93 50 -145 19z m97 -51 c12 -22 13 -34 2 -68 -23 -80 -101
-75 -101 6 0 83 65 123 99 62z"/>
<path d="M3193 502 c-20 -3 -23 -9 -23 -51 0 -27 -3 -76 -6 -110 -7 -60 -7
-61 18 -61 22 0 26 5 32 46 3 26 6 59 6 75 0 32 31 59 67 59 13 0 23 4 23 9 0
5 3 16 6 25 8 21 -34 22 -62 1 -24 -18 -32 -19 -36 -2 -2 6 -13 11 -25 9z"/>
<path d="M3500 503 c-30 -11 -50 -37 -50 -65 0 -23 8 -34 45 -56 63 -38 60
-60 -7 -64 -41 -2 -54 -7 -56 -20 -3 -16 5 -18 55 -18 74 0 103 18 103 65 0
35 -29 67 -71 80 -12 4 -19 14 -17 23 3 13 14 17 46 17 23 0 42 3 42 7 0 3 3
13 6 22 5 13 -2 16 -37 15 -24 0 -51 -3 -59 -6z"/>
<path d="M2806 469 c-10 -54 -7 -164 6 -177 20 -20 79 -14 105 10 l23 21 0
-21 c0 -16 6 -22 24 -22 22 0 24 4 30 96 4 53 10 102 13 110 4 10 -3 14 -25
14 -29 0 -29 -1 -35 -62 -6 -71 -32 -113 -68 -113 -24 0 -24 1 -21 88 3 86 3
87 -21 87 -19 0 -26 -7 -31 -31z"/>
<path d="M4370 430 l0 -70 45 0 c25 0 45 -4 45 -10 0 -5 -20 -10 -45 -10 -33
0 -45 -4 -45 -15 0 -11 12 -15 45 -15 33 0 45 -4 45 -15 0 -12 -13 -15 -60
-15 -49 0 -58 -3 -54 -15 5 -12 29 -15 130 -15 104 0 124 2 124 15 0 12 -13
15 -55 15 -42 0 -55 3 -55 15 0 11 12 15 45 15 33 0 45 4 45 15 0 11 -12 15
-45 15 -25 0 -45 5 -45 10 0 6 18 10 40 10 l40 0 0 70 0 70 -100 0 -100 0 0
-70z m90 25 c0 -9 -9 -15 -24 -15 -13 0 -26 7 -30 15 -4 11 2 15 24 15 20 0
30 -5 30 -15z m80 0 c0 -9 -9 -15 -25 -15 -16 0 -25 6 -25 15 0 9 9 15 25 15
16 0 25 -6 25 -15z m-80 -50 c0 -9 -9 -15 -25 -15 -16 0 -25 6 -25 15 0 9 9
15 25 15 16 0 25 -6 25 -15z m80 0 c0 -9 -9 -15 -25 -15 -16 0 -25 6 -25 15 0
9 9 15 25 15 16 0 25 -6 25 -15z"/>
<path d="M5200 465 c0 -11 11 -15 38 -16 l37 0 -35 -14 c-19 -7 -44 -16 -54
-19 -14 -5 -16 -10 -8 -18 7 -7 24 -6 58 6 47 16 72 13 44 -5 -8 -5 -36 -17
-62 -26 -27 -10 -48 -24 -48 -31 0 -17 38 -10 94 19 21 11 41 17 44 14 11 -10
-24 -36 -84 -60 -32 -13 -59 -30 -59 -37 0 -18 30 -11 98 22 54 27 57 27 57 9
0 -13 -10 -24 -30 -30 -36 -13 -30 -29 10 -29 36 0 52 27 49 80 -4 54 6 59 29
13 28 -53 59 -80 75 -64 9 10 8 16 -9 29 -11 10 -29 30 -39 46 -18 28 -18 29
0 42 10 8 23 14 28 14 5 0 4 6 -2 14 -9 11 -18 10 -52 -7 -36 -18 -42 -18 -56
-4 -23 23 -7 37 43 37 32 0 44 4 44 15 0 12 -18 15 -105 15 -87 0 -105 -3
-105 -15z"/>
<path d="M6220 466 l-55 -12 -3 -102 c-1 -56 1 -102 5 -102 31 0 83 23 83 37
0 11 -6 14 -25 9 -25 -6 -25 -6 -25 64 0 79 14 91 31 28 13 -49 35 -95 57
-120 11 -14 18 -15 28 -7 11 9 9 17 -11 41 -31 36 -31 51 -2 71 17 12 19 18
10 28 -10 10 -16 9 -31 -5 -19 -16 -20 -16 -26 6 -9 34 -8 35 20 42 14 4 24
12 22 18 -6 16 -15 17 -78 4z"/>
<path d="M6440 435 c0 -8 9 -15 20 -15 17 0 20 -7 20 -52 0 -39 -5 -57 -22
-75 -16 -17 -19 -26 -10 -35 8 -8 16 -5 31 13 19 24 19 24 41 4 18 -16 40 -20
126 -23 91 -4 104 -2 104 12 0 14 -14 16 -91 16 -68 0 -98 4 -120 17 -27 16
-29 21 -29 85 l0 68 -35 0 c-24 0 -35 -5 -35 -15z"/>
<path d="M5720 370 c0 -6 -28 -10 -65 -10 -51 0 -65 -3 -65 -15 0 -11 13 -15
53 -15 l52 -1 -23 -19 c-13 -11 -39 -22 -58 -26 -31 -6 -45 -26 -26 -37 13 -9
97 25 123 49 24 23 27 24 40 8 18 -22 87 -53 117 -54 38 0 24 25 -20 37 -24 7
-52 19 -63 27 -19 14 -16 15 38 16 44 0 57 3 57 15 0 12 -14 15 -65 15 -37 0
-65 4 -65 10 0 6 -7 10 -15 10 -8 0 -15 -4 -15 -10z"/>
</g>
</svg>
